<svg height='300px' width='300px'  fill="#000000" xmlns="http://www.w3.org/2000/svg" xmlns:xlink="http://www.w3.org/1999/xlink" version="1.1" x="0px" y="0px" viewBox="0 0 100 100" style="enable-background:new 0 0 100 100;" xml:space="preserve"><style type="text/css">
	.st0{display:none;}
	.st1{display:inline;}
	.st2{opacity:5.000000e-02;fill:none;stroke:#000000;stroke-width:0.25;stroke-miterlimit:10;}
	.st3{fill:none;stroke:#000000;stroke-width:0.25;stroke-miterlimit:10;}
	.st4{display:inline;fill:none;stroke:#000000;stroke-width:5;stroke-miterlimit:10;}
</style><g class="st0"><g class="st1"><rect x="0" class="st2" width="4" height="4"></rect><rect x="4" class="st2" width="4" height="4"></rect><rect x="8" class="st2" width="4" height="4"></rect><rect x="12" class="st2" width="4" height="4"></rect><rect x="16" class="st2" width="4" height="4"></rect><rect x="20" class="st2" width="4" height="4"></rect><rect x="24" class="st2" width="4" height="4"></rect><rect x="28" class="st2" width="4" height="4"></rect><rect x="32" class="st2" width="4" height="4"></rect><rect x="36" class="st2" width="4" height="4"></rect><rect x="40" class="st2" width="4" height="4"></rect><rect x="44" class="st2" width="4" height="4"></rect><rect x="48" class="st2" width="4" height="4"></rect><rect x="52" class="st2" width="4" height="4"></rect><rect x="56" class="st2" width="4" height="4"></rect><rect x="60" class="st2" width="4" height="4"></rect><rect x="64" class="st2" width="4" height="4"></rect><rect x="68" class="st2" width="4" height="4"></rect><rect x="72" class="st2" width="4" height="4"></rect><rect x="76" class="st2" width="4" height="4"></rect><rect x="80" class="st2" width="4" height="4"></rect><rect x="84" class="st2" width="4" height="4"></rect><rect x="88" class="st2" width="4" height="4"></rect><rect x="92" class="st2" width="4" height="4"></rect><rect x="96" class="st2" width="4" height="4"></rect><rect x="0" y="4" class="st2" width="4" height="4"></rect><rect x="4" y="4" class="st2" width="4" height="4"></rect><rect x="8" y="4" class="st2" width="4" height="4"></rect><rect x="12" y="4" class="st2" width="4" height="4"></rect><rect x="16" y="4" class="st2" width="4" height="4"></rect><rect x="20" y="4" class="st2" width="4" height="4"></rect><rect x="24" y="4" class="st2" width="4" height="4"></rect><rect x="28" y="4" class="st2" width="4" height="4"></rect><rect x="32" y="4" class="st2" width="4" height="4"></rect><rect x="36" y="4" class="st2" width="4" height="4"></rect><rect x="40" y="4" class="st2" width="4" height="4"></rect><rect x="44" y="4" class="st2" width="4" height="4"></rect><rect x="48" y="4" class="st2" width="4" height="4"></rect><rect x="52" y="4" class="st2" width="4" height="4"></rect><rect x="56" y="4" class="st2" width="4" height="4"></rect><rect x="60" y="4" class="st2" width="4" height="4"></rect><rect x="64" y="4" class="st2" width="4" height="4"></rect><rect x="68" y="4" class="st2" width="4" height="4"></rect><rect x="72" y="4" class="st2" width="4" height="4"></rect><rect x="76" y="4" class="st2" width="4" height="4"></rect><rect x="80" y="4" class="st2" width="4" height="4"></rect><rect x="84" y="4" class="st2" width="4" height="4"></rect><rect x="88" y="4" class="st2" width="4" height="4"></rect><rect x="92" y="4" class="st2" width="4" height="4"></rect><rect x="96" y="4" class="st2" width="4" height="4"></rect><rect x="0" y="8" class="st2" width="4" height="4"></rect><rect x="4" y="8" class="st2" width="4" height="4"></rect><rect x="8" y="8" class="st2" width="4" height="4"></rect><rect x="12" y="8" class="st2" width="4" height="4"></rect><rect x="16" y="8" class="st2" width="4" height="4"></rect><rect x="20" y="8" class="st2" width="4" height="4"></rect><rect x="24" y="8" class="st2" width="4" height="4"></rect><rect x="28" y="8" class="st2" width="4" height="4"></rect><rect x="32" y="8" class="st2" width="4" height="4"></rect><rect x="36" y="8" class="st2" width="4" height="4"></rect><rect x="40" y="8" class="st2" width="4" height="4"></rect><rect x="44" y="8" class="st2" width="4" height="4"></rect><rect x="48" y="8" class="st2" width="4" height="4"></rect><rect x="52" y="8" class="st2" width="4" height="4"></rect><rect x="56" y="8" class="st2" width="4" height="4"></rect><rect x="60" y="8" class="st2" width="4" height="4"></rect><rect x="64" y="8" class="st2" width="4" height="4"></rect><rect x="68" y="8" class="st2" width="4" height="4"></rect><rect x="72" y="8" class="st2" width="4" height="4"></rect><rect x="76" y="8" class="st2" width="4" height="4"></rect><rect x="80" y="8" class="st2" width="4" height="4"></rect><rect x="84" y="8" class="st2" width="4" height="4"></rect><rect x="88" y="8" class="st2" width="4" height="4"></rect><rect x="92" y="8" class="st2" width="4" height="4"></rect><rect x="96" y="8" class="st2" width="4" height="4"></rect><rect x="0" y="12" class="st2" width="4" height="4"></rect><rect x="4" y="12" class="st2" width="4" height="4"></rect><rect x="8" y="12" class="st2" width="4" height="4"></rect><rect x="12" y="12" class="st2" width="4" height="4"></rect><rect x="16" y="12" class="st2" width="4" height="4"></rect><rect x="20" y="12" class="st2" width="4" height="4"></rect><rect x="24" y="12" class="st2" width="4" height="4"></rect><rect x="28" y="12" class="st2" width="4" height="4"></rect><rect x="32" y="12" class="st2" width="4" height="4"></rect><rect x="36" y="12" class="st2" width="4" height="4"></rect><rect x="40" y="12" class="st2" width="4" height="4"></rect><rect x="44" y="12" class="st2" width="4" height="4"></rect><rect x="48" y="12" class="st2" width="4" height="4"></rect><rect x="52" y="12" class="st2" width="4" height="4"></rect><rect x="56" y="12" class="st2" width="4" height="4"></rect><rect x="60" y="12" class="st2" width="4" height="4"></rect><rect x="64" y="12" class="st2" width="4" height="4"></rect><rect x="68" y="12" class="st2" width="4" height="4"></rect><rect x="72" y="12" class="st2" width="4" height="4"></rect><rect x="76" y="12" class="st2" width="4" height="4"></rect><rect x="80" y="12" class="st2" width="4" height="4"></rect><rect x="84" y="12" class="st2" width="4" height="4"></rect><rect x="88" y="12" class="st2" width="4" height="4"></rect><rect x="92" y="12" class="st2" width="4" height="4"></rect><rect x="96" y="12" class="st2" width="4" height="4"></rect><rect x="0" y="16" class="st2" width="4" height="4"></rect><rect x="4" y="16" class="st2" width="4" height="4"></rect><rect x="8" y="16" class="st2" width="4" height="4"></rect><rect x="12" y="16" class="st2" width="4" height="4"></rect><rect x="16" y="16" class="st2" width="4" height="4"></rect><rect x="20" y="16" class="st2" width="4" height="4"></rect><rect x="24" y="16" class="st2" width="4" height="4"></rect><rect x="28" y="16" class="st2" width="4" height="4"></rect><rect x="32" y="16" class="st2" width="4" height="4"></rect><rect x="36" y="16" class="st2" width="4" height="4"></rect><rect x="40" y="16" class="st2" width="4" height="4"></rect><rect x="44" y="16" class="st2" width="4" height="4"></rect><rect x="48" y="16" class="st2" width="4" height="4"></rect><rect x="52" y="16" class="st2" width="4" height="4"></rect><rect x="56" y="16" class="st2" width="4" height="4"></rect><rect x="60" y="16" class="st2" width="4" height="4"></rect><rect x="64" y="16" class="st2" width="4" height="4"></rect><rect x="68" y="16" class="st2" width="4" height="4"></rect><rect x="72" y="16" class="st2" width="4" height="4"></rect><rect x="76" y="16" class="st2" width="4" height="4"></rect><rect x="80" y="16" class="st2" width="4" height="4"></rect><rect x="84" y="16" class="st2" width="4" height="4"></rect><rect x="88" y="16" class="st2" width="4" height="4"></rect><rect x="92" y="16" class="st2" width="4" height="4"></rect><rect x="96" y="16" class="st2" width="4" height="4"></rect><rect x="0" y="20" class="st2" width="4" height="4"></rect><rect x="4" y="20" class="st2" width="4" height="4"></rect><rect x="8" y="20" class="st2" width="4" height="4"></rect><rect x="12" y="20" class="st2" width="4" height="4"></rect><rect x="16" y="20" class="st2" width="4" height="4"></rect><rect x="20" y="20" class="st2" width="4" height="4"></rect><rect x="24" y="20" class="st2" width="4" height="4"></rect><rect x="28" y="20" class="st2" width="4" height="4"></rect><rect x="32" y="20" class="st2" width="4" height="4"></rect><rect x="36" y="20" class="st2" width="4" height="4"></rect><rect x="40" y="20" class="st2" width="4" height="4"></rect><rect x="44" y="20" class="st2" width="4" height="4"></rect><rect x="48" y="20" class="st2" width="4" height="4"></rect><rect x="52" y="20" class="st2" width="4" height="4"></rect><rect x="56" y="20" class="st2" width="4" height="4"></rect><rect x="60" y="20" class="st2" width="4" height="4"></rect><rect x="64" y="20" class="st2" width="4" height="4"></rect><rect x="68" y="20" class="st2" width="4" height="4"></rect><rect x="72" y="20" class="st2" width="4" height="4"></rect><rect x="76" y="20" class="st2" width="4" height="4"></rect><rect x="80" y="20" class="st2" width="4" height="4"></rect><rect x="84" y="20" class="st2" width="4" height="4"></rect><rect x="88" y="20" class="st2" width="4" height="4"></rect><rect x="92" y="20" class="st2" width="4" height="4"></rect><rect x="96" y="20" class="st2" width="4" height="4"></rect><rect x="0" y="24" class="st2" width="4" height="4"></rect><rect x="4" y="24" class="st2" width="4" height="4"></rect><rect x="8" y="24" class="st2" width="4" height="4"></rect><rect x="12" y="24" class="st2" width="4" height="4"></rect><rect x="16" y="24" class="st2" width="4" height="4"></rect><rect x="20" y="24" class="st2" width="4" height="4"></rect><rect x="24" y="24" class="st2" width="4" height="4"></rect><rect x="28" y="24" class="st2" width="4" height="4"></rect><rect x="32" y="24" class="st2" width="4" height="4"></rect><rect x="36" y="24" class="st2" width="4" height="4"></rect><rect x="40" y="24" class="st2" width="4" height="4"></rect><rect x="44" y="24" class="st2" width="4" height="4"></rect><rect x="48" y="24" class="st2" width="4" height="4"></rect><rect x="52" y="24" class="st2" width="4" height="4"></rect><rect x="56" y="24" class="st2" width="4" height="4"></rect><rect x="60" y="24" class="st2" width="4" height="4"></rect><rect x="64" y="24" class="st2" width="4" height="4"></rect><rect x="68" y="24" class="st2" width="4" height="4"></rect><rect x="72" y="24" class="st2" width="4" height="4"></rect><rect x="76" y="24" class="st2" width="4" height="4"></rect><rect x="80" y="24" class="st2" width="4" height="4"></rect><rect x="84" y="24" class="st2" width="4" height="4"></rect><rect x="88" y="24" class="st2" width="4" height="4"></rect><rect x="92" y="24" class="st2" width="4" height="4"></rect><rect x="96" y="24" class="st2" width="4" height="4"></rect><rect x="0" y="28" class="st2" width="4" height="4"></rect><rect x="4" y="28" class="st2" width="4" height="4"></rect><rect x="8" y="28" class="st2" width="4" height="4"></rect><rect x="12" y="28" class="st2" width="4" height="4"></rect><rect x="16" y="28" class="st2" width="4" height="4"></rect><rect x="20" y="28" class="st2" width="4" height="4"></rect><rect x="24" y="28" class="st2" width="4" height="4"></rect><rect x="28" y="28" class="st2" width="4" height="4"></rect><rect x="32" y="28" class="st2" width="4" height="4"></rect><rect x="36" y="28" class="st2" width="4" height="4"></rect><rect x="40" y="28" class="st2" width="4" height="4"></rect><rect x="44" y="28" class="st2" width="4" height="4"></rect><rect x="48" y="28" class="st2" width="4" height="4"></rect><rect x="52" y="28" class="st2" width="4" height="4"></rect><rect x="56" y="28" class="st2" width="4" height="4"></rect><rect x="60" y="28" class="st2" width="4" height="4"></rect><rect x="64" y="28" class="st2" width="4" height="4"></rect><rect x="68" y="28" class="st2" width="4" height="4"></rect><rect x="72" y="28" class="st2" width="4" height="4"></rect><rect x="76" y="28" class="st2" width="4" height="4"></rect><rect x="80" y="28" class="st2" width="4" height="4"></rect><rect x="84" y="28" class="st2" width="4" height="4"></rect><rect x="88" y="28" class="st2" width="4" height="4"></rect><rect x="92" y="28" class="st2" width="4" height="4"></rect><rect x="96" y="28" class="st2" width="4" height="4"></rect><rect x="0" y="32" class="st2" width="4" height="4"></rect><rect x="4" y="32" class="st2" width="4" height="4"></rect><rect x="8" y="32" class="st2" width="4" height="4"></rect><rect x="12" y="32" class="st2" width="4" height="4"></rect><rect x="16" y="32" class="st2" width="4" height="4"></rect><rect x="20" y="32" class="st2" width="4" height="4"></rect><rect x="24" y="32" class="st2" width="4" height="4"></rect><rect x="28" y="32" class="st2" width="4" height="4"></rect><rect x="32" y="32" class="st2" width="4" height="4"></rect><rect x="36" y="32" class="st2" width="4" height="4"></rect><rect x="40" y="32" class="st2" width="4" height="4"></rect><rect x="44" y="32" class="st2" width="4" height="4"></rect><rect x="48" y="32" class="st2" width="4" height="4"></rect><rect x="52" y="32" class="st2" width="4" height="4"></rect><rect x="56" y="32" class="st2" width="4" height="4"></rect><rect x="60" y="32" class="st2" width="4" height="4"></rect><rect x="64" y="32" class="st2" width="4" height="4"></rect><rect x="68" y="32" class="st2" width="4" height="4"></rect><rect x="72" y="32" class="st2" width="4" height="4"></rect><rect x="76" y="32" class="st2" width="4" height="4"></rect><rect x="80" y="32" class="st2" width="4" height="4"></rect><rect x="84" y="32" class="st2" width="4" height="4"></rect><rect x="88" y="32" class="st2" width="4" height="4"></rect><rect x="92" y="32" class="st2" width="4" height="4"></rect><rect x="96" y="32" class="st2" width="4" height="4"></rect><rect x="0" y="36" class="st2" width="4" height="4"></rect><rect x="4" y="36" class="st2" width="4" height="4"></rect><rect x="8" y="36" class="st2" width="4" height="4"></rect><rect x="12" y="36" class="st2" width="4" height="4"></rect><rect x="16" y="36" class="st2" width="4" height="4"></rect><rect x="20" y="36" class="st2" width="4" height="4"></rect><rect x="24" y="36" class="st2" width="4" height="4"></rect><rect x="28" y="36" class="st2" width="4" height="4"></rect><rect x="32" y="36" class="st2" width="4" height="4"></rect><rect x="36" y="36" class="st2" width="4" height="4"></rect><rect x="40" y="36" class="st2" width="4" height="4"></rect><rect x="44" y="36" class="st2" width="4" height="4"></rect><rect x="48" y="36" class="st2" width="4" height="4"></rect><rect x="52" y="36" class="st2" width="4" height="4"></rect><rect x="56" y="36" class="st2" width="4" height="4"></rect><rect x="60" y="36" class="st2" width="4" height="4"></rect><rect x="64" y="36" class="st2" width="4" height="4"></rect><rect x="68" y="36" class="st2" width="4" height="4"></rect><rect x="72" y="36" class="st2" width="4" height="4"></rect><rect x="76" y="36" class="st2" width="4" height="4"></rect><rect x="80" y="36" class="st2" width="4" height="4"></rect><rect x="84" y="36" class="st2" width="4" height="4"></rect><rect x="88" y="36" class="st2" width="4" height="4"></rect><rect x="92" y="36" class="st2" width="4" height="4"></rect><rect x="96" y="36" class="st2" width="4" height="4"></rect><rect x="0" y="40" class="st2" width="4" height="4"></rect><rect x="4" y="40" class="st2" width="4" height="4"></rect><rect x="8" y="40" class="st2" width="4" height="4"></rect><rect x="12" y="40" class="st2" width="4" height="4"></rect><rect x="16" y="40" class="st2" width="4" height="4"></rect><rect x="20" y="40" class="st2" width="4" height="4"></rect><rect x="24" y="40" class="st2" width="4" height="4"></rect><rect x="28" y="40" class="st2" width="4" height="4"></rect><rect x="32" y="40" class="st2" width="4" height="4"></rect><rect x="36" y="40" class="st2" width="4" height="4"></rect><rect x="40" y="40" class="st2" width="4" height="4"></rect><rect x="44" y="40" class="st2" width="4" height="4"></rect><rect x="48" y="40" class="st2" width="4" height="4"></rect><rect x="52" y="40" class="st2" width="4" height="4"></rect><rect x="56" y="40" class="st2" width="4" height="4"></rect><rect x="60" y="40" class="st2" width="4" height="4"></rect><rect x="64" y="40" class="st2" width="4" height="4"></rect><rect x="68" y="40" class="st2" width="4" height="4"></rect><rect x="72" y="40" class="st2" width="4" height="4"></rect><rect x="76" y="40" class="st2" width="4" height="4"></rect><rect x="80" y="40" class="st2" width="4" height="4"></rect><rect x="84" y="40" class="st2" width="4" height="4"></rect><rect x="88" y="40" class="st2" width="4" height="4"></rect><rect x="92" y="40" class="st2" width="4" height="4"></rect><rect x="96" y="40" class="st2" width="4" height="4"></rect><rect x="0" y="44" class="st2" width="4" height="4"></rect><rect x="4" y="44" class="st2" width="4" height="4"></rect><rect x="8" y="44" class="st2" width="4" height="4"></rect><rect x="12" y="44" class="st2" width="4" height="4"></rect><rect x="16" y="44" class="st2" width="4" height="4"></rect><rect x="20" y="44" class="st2" width="4" height="4"></rect><rect x="24" y="44" class="st2" width="4" height="4"></rect><rect x="28" y="44" class="st2" width="4" height="4"></rect><rect x="32" y="44" class="st2" width="4" height="4"></rect><rect x="36" y="44" class="st2" width="4" height="4"></rect><rect x="40" y="44" class="st2" width="4" height="4"></rect><rect x="44" y="44" class="st2" width="4" height="4"></rect><rect x="48" y="44" class="st2" width="4" height="4"></rect><rect x="52" y="44" class="st2" width="4" height="4"></rect><rect x="56" y="44" class="st2" width="4" height="4"></rect><rect x="60" y="44" class="st2" width="4" height="4"></rect><rect x="64" y="44" class="st2" width="4" height="4"></rect><rect x="68" y="44" class="st2" width="4" height="4"></rect><rect x="72" y="44" class="st2" width="4" height="4"></rect><rect x="76" y="44" class="st2" width="4" height="4"></rect><rect x="80" y="44" class="st2" width="4" height="4"></rect><rect x="84" y="44" class="st2" width="4" height="4"></rect><rect x="88" y="44" class="st2" width="4" height="4"></rect><rect x="92" y="44" class="st2" width="4" height="4"></rect><rect x="96" y="44" class="st2" width="4" height="4"></rect><rect x="0" y="48" class="st2" width="4" height="4"></rect><rect x="4" y="48" class="st2" width="4" height="4"></rect><rect x="8" y="48" class="st2" width="4" height="4"></rect><rect x="12" y="48" class="st2" width="4" height="4"></rect><rect x="16" y="48" class="st2" width="4" height="4"></rect><rect x="20" y="48" class="st2" width="4" height="4"></rect><rect x="24" y="48" class="st2" width="4" height="4"></rect><rect x="28" y="48" class="st2" width="4" height="4"></rect><rect x="32" y="48" class="st2" width="4" height="4"></rect><rect x="36" y="48" class="st2" width="4" height="4"></rect><rect x="40" y="48" class="st2" width="4" height="4"></rect><rect x="44" y="48" class="st2" width="4" height="4"></rect><rect x="48" y="48" class="st2" width="4" height="4"></rect><rect x="52" y="48" class="st2" width="4" height="4"></rect><rect x="56" y="48" class="st2" width="4" height="4"></rect><rect x="60" y="48" class="st2" width="4" height="4"></rect><rect x="64" y="48" class="st2" width="4" height="4"></rect><rect x="68" y="48" class="st2" width="4" height="4"></rect><rect x="72" y="48" class="st2" width="4" height="4"></rect><rect x="76" y="48" class="st2" width="4" height="4"></rect><rect x="80" y="48" class="st2" width="4" height="4"></rect><rect x="84" y="48" class="st2" width="4" height="4"></rect><rect x="88" y="48" class="st2" width="4" height="4"></rect><rect x="92" y="48" class="st2" width="4" height="4"></rect><rect x="96" y="48" class="st2" width="4" height="4"></rect><rect x="0" y="52" class="st2" width="4" height="4"></rect><rect x="4" y="52" class="st2" width="4" height="4"></rect><rect x="8" y="52" class="st2" width="4" height="4"></rect><rect x="12" y="52" class="st2" width="4" height="4"></rect><rect x="16" y="52" class="st2" width="4" height="4"></rect><rect x="20" y="52" class="st2" width="4" height="4"></rect><rect x="24" y="52" class="st2" width="4" height="4"></rect><rect x="28" y="52" class="st2" width="4" height="4"></rect><rect x="32" y="52" class="st2" width="4" height="4"></rect><rect x="36" y="52" class="st2" width="4" height="4"></rect><rect x="40" y="52" class="st2" width="4" height="4"></rect><rect x="44" y="52" class="st2" width="4" height="4"></rect><rect x="48" y="52" class="st2" width="4" height="4"></rect><rect x="52" y="52" class="st2" width="4" height="4"></rect><rect x="56" y="52" class="st2" width="4" height="4"></rect><rect x="60" y="52" class="st2" width="4" height="4"></rect><rect x="64" y="52" class="st2" width="4" height="4"></rect><rect x="68" y="52" class="st2" width="4" height="4"></rect><rect x="72" y="52" class="st2" width="4" height="4"></rect><rect x="76" y="52" class="st2" width="4" height="4"></rect><rect x="80" y="52" class="st2" width="4" height="4"></rect><rect x="84" y="52" class="st2" width="4" height="4"></rect><rect x="88" y="52" class="st2" width="4" height="4"></rect><rect x="92" y="52" class="st2" width="4" height="4"></rect><rect x="96" y="52" class="st2" width="4" height="4"></rect><rect x="0" y="56" class="st2" width="4" height="4"></rect><rect x="4" y="56" class="st2" width="4" height="4"></rect><rect x="8" y="56" class="st2" width="4" height="4"></rect><rect x="12" y="56" class="st2" width="4" height="4"></rect><rect x="16" y="56" class="st2" width="4" height="4"></rect><rect x="20" y="56" class="st2" width="4" height="4"></rect><rect x="24" y="56" class="st2" width="4" height="4"></rect><rect x="28" y="56" class="st2" width="4" height="4"></rect><rect x="32" y="56" class="st2" width="4" height="4"></rect><rect x="36" y="56" class="st2" width="4" height="4"></rect><rect x="40" y="56" class="st2" width="4" height="4"></rect><rect x="44" y="56" class="st2" width="4" height="4"></rect><rect x="48" y="56" class="st2" width="4" height="4"></rect><rect x="52" y="56" class="st2" width="4" height="4"></rect><rect x="56" y="56" class="st2" width="4" height="4"></rect><rect x="60" y="56" class="st2" width="4" height="4"></rect><rect x="64" y="56" class="st2" width="4" height="4"></rect><rect x="68" y="56" transform="matrix(0.9994 -3.496182e-02 3.496182e-02 0.9994 -1.985 2.4828)" class="st2" width="4" height="4"></rect><rect x="72" y="56" class="st2" width="4" height="4"></rect><rect x="76" y="56" class="st2" width="4" height="4"></rect><rect x="80" y="56" class="st2" width="4" height="4"></rect><rect x="84" y="56" class="st2" width="4" height="4"></rect><rect x="88" y="56" class="st2" width="4" height="4"></rect><rect x="92" y="56" class="st2" width="4" height="4"></rect><rect x="96" y="56" class="st2" width="4" height="4"></rect><rect x="0" y="60" class="st2" width="4" height="4"></rect><rect x="4" y="60" class="st2" width="4" height="4"></rect><rect x="8" y="60" class="st2" width="4" height="4"></rect><rect x="12" y="60" class="st2" width="4" height="4"></rect><rect x="16" y="60" class="st2" width="4" height="4"></rect><rect x="20" y="60" class="st2" width="4" height="4"></rect><rect x="24" y="60" class="st2" width="4" height="4"></rect><rect x="28" y="60" class="st2" width="4" height="4"></rect><rect x="32" y="60" class="st2" width="4" height="4"></rect><rect x="36" y="60" class="st2" width="4" height="4"></rect><rect x="40" y="60" class="st2" width="4" height="4"></rect><rect x="44" y="60" class="st2" width="4" height="4"></rect><rect x="48" y="60" class="st2" width="4" height="4"></rect><rect x="52" y="60" class="st2" width="4" height="4"></rect><rect x="56" y="60" class="st2" width="4" height="4"></rect><rect x="60" y="60" class="st2" width="4" height="4"></rect><rect x="64" y="60" class="st2" width="4" height="4"></rect><rect x="68" y="60" class="st2" width="4" height="4"></rect><rect x="72" y="60" class="st2" width="4" height="4"></rect><rect x="76" y="60" class="st2" width="4" height="4"></rect><rect x="80" y="60" class="st2" width="4" height="4"></rect><rect x="84" y="60" class="st2" width="4" height="4"></rect><rect x="88" y="60" class="st2" width="4" height="4"></rect><rect x="92" y="60" class="st2" width="4" height="4"></rect><rect x="96" y="60" class="st2" width="4" height="4"></rect><rect x="0" y="64" class="st2" width="4" height="4"></rect><rect x="4" y="64" class="st2" width="4" height="4"></rect><rect x="8" y="64" class="st2" width="4" height="4"></rect><rect x="12" y="64" class="st2" width="4" height="4"></rect><rect x="16" y="64" class="st2" width="4" height="4"></rect><rect x="20" y="64" class="st2" width="4" height="4"></rect><rect x="24" y="64" class="st2" width="4" height="4"></rect><rect x="28" y="64" class="st2" width="4" height="4"></rect><rect x="32" y="64" class="st2" width="4" height="4"></rect><rect x="36" y="64" class="st2" width="4" height="4"></rect><rect x="40" y="64" class="st2" width="4" height="4"></rect><rect x="44" y="64" class="st2" width="4" height="4"></rect><rect x="48" y="64" class="st2" width="4" height="4"></rect><rect x="52" y="64" class="st2" width="4" height="4"></rect><rect x="56" y="64" class="st2" width="4" height="4"></rect><rect x="60" y="64" class="st2" width="4" height="4"></rect><rect x="64" y="64" class="st2" width="4" height="4"></rect><rect x="68" y="64" class="st2" width="4" height="4"></rect><rect x="72" y="64" class="st2" width="4" height="4"></rect><rect x="76" y="64" class="st2" width="4" height="4"></rect><rect x="80" y="64" class="st2" width="4" height="4"></rect><rect x="84" y="64" class="st2" width="4" height="4"></rect><rect x="88" y="64" class="st2" width="4" height="4"></rect><rect x="92" y="64" class="st2" width="4" height="4"></rect><rect x="96" y="64" class="st2" width="4" height="4"></rect><rect x="0" y="68" class="st2" width="4" height="4"></rect><rect x="4" y="68" class="st2" width="4" height="4"></rect><rect x="8" y="68" class="st2" width="4" height="4"></rect><rect x="12" y="68" class="st2" width="4" height="4"></rect><rect x="16" y="68" class="st2" width="4" height="4"></rect><rect x="20" y="68" class="st2" width="4" height="4"></rect><rect x="24" y="68" class="st2" width="4" height="4"></rect><rect x="28" y="68" class="st2" width="4" height="4"></rect><rect x="32" y="68" class="st2" width="4" height="4"></rect><rect x="36" y="68" class="st2" width="4" height="4"></rect><rect x="40" y="68" class="st2" width="4" height="4"></rect><rect x="44" y="68" class="st2" width="4" height="4"></rect><rect x="48" y="68" class="st2" width="4" height="4"></rect><rect x="52" y="68" class="st2" width="4" height="4"></rect><rect x="56" y="68" class="st2" width="4" height="4"></rect><rect x="60" y="68" class="st2" width="4" height="4"></rect><rect x="64" y="68" class="st2" width="4" height="4"></rect><rect x="68" y="68" class="st2" width="4" height="4"></rect><rect x="72" y="68" class="st2" width="4" height="4"></rect><rect x="76" y="68" class="st2" width="4" height="4"></rect><rect x="80" y="68" class="st2" width="4" height="4"></rect><rect x="84" y="68" class="st2" width="4" height="4"></rect><rect x="88" y="68" class="st2" width="4" height="4"></rect><rect x="92" y="68" class="st2" width="4" height="4"></rect><rect x="96" y="68" class="st2" width="4" height="4"></rect><rect x="0" y="72" class="st2" width="4" height="4"></rect><rect x="4" y="72" class="st2" width="4" height="4"></rect><rect x="8" y="72" class="st2" width="4" height="4"></rect><rect x="12" y="72" class="st2" width="4" height="4"></rect><rect x="16" y="72" class="st2" width="4" height="4"></rect><rect x="20" y="72" class="st2" width="4" height="4"></rect><rect x="24" y="72" class="st2" width="4" height="4"></rect><rect x="28" y="72" class="st2" width="4" height="4"></rect><rect x="32" y="72" class="st2" width="4" height="4"></rect><rect x="36" y="72" class="st2" width="4" height="4"></rect><rect x="40" y="72" class="st2" width="4" height="4"></rect><rect x="44" y="72" class="st2" width="4" height="4"></rect><rect x="48" y="72" class="st2" width="4" height="4"></rect><rect x="52" y="72" class="st2" width="4" height="4"></rect><rect x="56" y="72" class="st2" width="4" height="4"></rect><rect x="60" y="72" class="st2" width="4" height="4"></rect><rect x="64" y="72" class="st2" width="4" height="4"></rect><rect x="68" y="72" class="st2" width="4" height="4"></rect><rect x="72" y="72" class="st2" width="4" height="4"></rect><rect x="76" y="72" class="st2" width="4" height="4"></rect><rect x="80" y="72" class="st2" width="4" height="4"></rect><rect x="84" y="72" class="st2" width="4" height="4"></rect><rect x="88" y="72" class="st2" width="4" height="4"></rect><rect x="92" y="72" class="st2" width="4" height="4"></rect><rect x="96" y="72" class="st2" width="4" height="4"></rect><rect x="0" y="76" class="st2" width="4" height="4"></rect><rect x="4" y="76" class="st2" width="4" height="4"></rect><rect x="8" y="76" class="st2" width="4" height="4"></rect><rect x="12" y="76" class="st2" width="4" height="4"></rect><rect x="16" y="76" class="st2" width="4" height="4"></rect><rect x="20" y="76" class="st2" width="4" height="4"></rect><rect x="24" y="76" class="st2" width="4" height="4"></rect><rect x="28" y="76" class="st2" width="4" height="4"></rect><rect x="32" y="76" class="st2" width="4" height="4"></rect><rect x="36" y="76" class="st2" width="4" height="4"></rect><rect x="40" y="76" class="st2" width="4" height="4"></rect><rect x="44" y="76" class="st2" width="4" height="4"></rect><rect x="48" y="76" class="st2" width="4" height="4"></rect><rect x="52" y="76" class="st2" width="4" height="4"></rect><rect x="56" y="76" class="st2" width="4" height="4"></rect><rect x="60" y="76" class="st2" width="4" height="4"></rect><rect x="64" y="76" class="st2" width="4" height="4"></rect><rect x="68" y="76" class="st2" width="4" height="4"></rect><rect x="72" y="76" class="st2" width="4" height="4"></rect><rect x="76" y="76" class="st2" width="4" height="4"></rect><rect x="80" y="76" class="st2" width="4" height="4"></rect><rect x="84" y="76" class="st2" width="4" height="4"></rect><rect x="88" y="76" class="st2" width="4" height="4"></rect><rect x="92" y="76" class="st2" width="4" height="4"></rect><rect x="96" y="76" class="st2" width="4" height="4"></rect><rect x="0" y="80" class="st2" width="4" height="4"></rect><rect x="4" y="80" class="st2" width="4" height="4"></rect><rect x="8" y="80" class="st2" width="4" height="4"></rect><rect x="12" y="80" class="st2" width="4" height="4"></rect><rect x="16" y="80" class="st2" width="4" height="4"></rect><rect x="20" y="80" class="st2" width="4" height="4"></rect><rect x="24" y="80" class="st2" width="4" height="4"></rect><rect x="28" y="80" class="st2" width="4" height="4"></rect><rect x="32" y="80" class="st2" width="4" height="4"></rect><rect x="36" y="80" class="st2" width="4" height="4"></rect><rect x="40" y="80" class="st2" width="4" height="4"></rect><rect x="44" y="80" class="st2" width="4" height="4"></rect><rect x="48" y="80" class="st2" width="4" height="4"></rect><rect x="52" y="80" class="st2" width="4" height="4"></rect><rect x="56" y="80" class="st2" width="4" height="4"></rect><rect x="60" y="80" class="st2" width="4" height="4"></rect><rect x="64" y="80" class="st2" width="4" height="4"></rect><rect x="68" y="80" class="st2" width="4" height="4"></rect><rect x="72" y="80" class="st2" width="4" height="4"></rect><rect x="76" y="80" class="st2" width="4" height="4"></rect><rect x="80" y="80" class="st2" width="4" height="4"></rect><rect x="84" y="80" class="st2" width="4" height="4"></rect><rect x="88" y="80" class="st2" width="4" height="4"></rect><rect x="92" y="80" class="st2" width="4" height="4"></rect><rect x="96" y="80" class="st2" width="4" height="4"></rect><rect x="0" y="84" class="st2" width="4" height="4"></rect><rect x="4" y="84" class="st2" width="4" height="4"></rect><rect x="8" y="84" class="st2" width="4" height="4"></rect><rect x="12" y="84" class="st2" width="4" height="4"></rect><rect x="16" y="84" class="st2" width="4" height="4"></rect><rect x="20" y="84" class="st2" width="4" height="4"></rect><rect x="24" y="84" class="st2" width="4" height="4"></rect><rect x="28" y="84" class="st2" width="4" height="4"></rect><rect x="32" y="84" class="st2" width="4" height="4"></rect><rect x="36" y="84" class="st2" width="4" height="4"></rect><rect x="40" y="84" class="st2" width="4" height="4"></rect><rect x="44" y="84" class="st2" width="4" height="4"></rect><rect x="48" y="84" class="st2" width="4" height="4"></rect><rect x="52" y="84" class="st2" width="4" height="4"></rect><rect x="56" y="84" class="st2" width="4" height="4"></rect><rect x="60" y="84" class="st2" width="4" height="4"></rect><rect x="64" y="84" class="st2" width="4" height="4"></rect><rect x="68" y="84" class="st2" width="4" height="4"></rect><rect x="72" y="84" class="st2" width="4" height="4"></rect><rect x="76" y="84" class="st2" width="4" height="4"></rect><rect x="80" y="84" class="st2" width="4" height="4"></rect><rect x="84" y="84" class="st2" width="4" height="4"></rect><rect x="88" y="84" class="st2" width="4" height="4"></rect><rect x="92" y="84" class="st2" width="4" height="4"></rect><rect x="96" y="84" class="st2" width="4" height="4"></rect><rect x="0" y="88" class="st2" width="4" height="4"></rect><rect x="4" y="88" class="st2" width="4" height="4"></rect><rect x="8" y="88" class="st2" width="4" height="4"></rect><rect x="12" y="88" class="st2" width="4" height="4"></rect><rect x="16" y="88" class="st2" width="4" height="4"></rect><rect x="20" y="88" class="st2" width="4" height="4"></rect><rect x="24" y="88" class="st2" width="4" height="4"></rect><rect x="28" y="88" class="st2" width="4" height="4"></rect><rect x="32" y="88" class="st2" width="4" height="4"></rect><rect x="36" y="88" class="st2" width="4" height="4"></rect><rect x="40" y="88" class="st2" width="4" height="4"></rect><rect x="44" y="88" class="st2" width="4" height="4"></rect><rect x="48" y="88" class="st2" width="4" height="4"></rect><rect x="52" y="88" class="st2" width="4" height="4"></rect><rect x="56" y="88" class="st2" width="4" height="4"></rect><rect x="60" y="88" class="st2" width="4" height="4"></rect><rect x="64" y="88" class="st2" width="4" height="4"></rect><rect x="68" y="88" class="st2" width="4" height="4"></rect><rect x="72" y="88" class="st2" width="4" height="4"></rect><rect x="76" y="88" class="st2" width="4" height="4"></rect><rect x="80" y="88" class="st2" width="4" height="4"></rect><rect x="84" y="88" class="st2" width="4" height="4"></rect><rect x="88" y="88" class="st2" width="4" height="4"></rect><rect x="92" y="88" class="st2" width="4" height="4"></rect><rect x="96" y="88" class="st2" width="4" height="4"></rect><rect x="0" y="92" class="st2" width="4" height="4"></rect><rect x="4" y="92" class="st2" width="4" height="4"></rect><rect x="8" y="92" class="st2" width="4" height="4"></rect><rect x="12" y="92" class="st2" width="4" height="4"></rect><rect x="16" y="92" class="st2" width="4" height="4"></rect><rect x="20" y="92" class="st2" width="4" height="4"></rect><rect x="24" y="92" class="st2" width="4" height="4"></rect><rect x="28" y="92" class="st2" width="4" height="4"></rect><rect x="32" y="92" class="st2" width="4" height="4"></rect><rect x="36" y="92" class="st2" width="4" height="4"></rect><rect x="40" y="92" class="st2" width="4" height="4"></rect><rect x="44" y="92" class="st2" width="4" height="4"></rect><rect x="48" y="92" class="st2" width="4" height="4"></rect><rect x="52" y="92" class="st2" width="4" height="4"></rect><rect x="56" y="92" class="st2" width="4" height="4"></rect><rect x="60" y="92" class="st2" width="4" height="4"></rect><rect x="64" y="92" class="st2" width="4" height="4"></rect><rect x="68" y="92" class="st2" width="4" height="4"></rect><rect x="72" y="92" class="st2" width="4" height="4"></rect><rect x="76" y="92" class="st2" width="4" height="4"></rect><rect x="80" y="92" class="st2" width="4" height="4"></rect><rect x="84" y="92" class="st2" width="4" height="4"></rect><rect x="88" y="92" class="st2" width="4" height="4"></rect><rect x="92" y="92" class="st2" width="4" height="4"></rect><rect x="96" y="92" class="st2" width="4" height="4"></rect><rect x="0" y="96" class="st2" width="4" height="4"></rect><rect x="4" y="96" class="st2" width="4" height="4"></rect><rect x="8" y="96" class="st2" width="4" height="4"></rect><rect x="12" y="96" class="st2" width="4" height="4"></rect><rect x="16" y="96" class="st2" width="4" height="4"></rect><rect x="20" y="96" class="st2" width="4" height="4"></rect><rect x="24" y="96" class="st2" width="4" height="4"></rect><rect x="28" y="96" class="st2" width="4" height="4"></rect><rect x="32" y="96" class="st2" width="4" height="4"></rect><rect x="36" y="96" class="st2" width="4" height="4"></rect><rect x="40" y="96" class="st2" width="4" height="4"></rect><rect x="44" y="96" class="st2" width="4" height="4"></rect><rect x="48" y="96" class="st2" width="4" height="4"></rect><rect x="52" y="96" class="st2" width="4" height="4"></rect><rect x="56" y="96" class="st2" width="4" height="4"></rect><rect x="60" y="96" class="st2" width="4" height="4"></rect><rect x="64" y="96" class="st2" width="4" height="4"></rect><rect x="68" y="96" class="st2" width="4" height="4"></rect><rect x="72" y="96" class="st2" width="4" height="4"></rect><rect x="76" y="96" class="st2" width="4" height="4"></rect><rect x="80" y="96" class="st2" width="4" height="4"></rect><rect x="84" y="96" class="st2" width="4" height="4"></rect><rect x="88" y="96" class="st2" width="4" height="4"></rect><rect x="92" y="96" class="st2" width="4" height="4"></rect><rect x="96" y="96" class="st2" width="4" height="4"></rect><line class="st3" x1="100" y1="100" x2="0" y2="0"></line><line class="st3" x1="0" y1="100" x2="100" y2="0"></line><rect x="12" y="12" class="st3" width="76" height="76"></rect><rect x="28" y="28" class="st3" width="44" height="44"></rect></g></g><g><g><path d="M78,17c2.8,0,5,2.2,5,5v56c0,2.8-2.2,5-5,5H22c-2.8,0-5-2.2-5-5V22c0-2.8,2.2-5,5-5H78 M78,12H22c-5.5,0-10,4.5-10,10v56    c0,5.5,4.5,10,10,10h56c5.5,0,10-4.5,10-10V22C88,16.5,83.5,12,78,12L78,12z"></path></g><g><circle cx="50" cy="50" r="6"></circle></g><g><circle cx="34" cy="66" r="6"></circle></g><g><circle cx="66" cy="66" r="6"></circle></g><g><circle cx="34" cy="34" r="6"></circle></g><g><circle cx="66" cy="34" r="6"></circle></g></g></svg>